<svg version="1.1" xmlns="http://www.w3.org/2000/svg" viewBox="0 0 347.9140625 245.2421875" width="695.828125" height="490.484375">
  <!-- svg-source:excalidraw -->
  
  <defs>
    <style class="style-fonts">
      @font-face {
        font-family: "Virgil";
        src: url("https://excalidraw.com/Virgil.woff2");
      }
      @font-face {
        font-family: "Cascadia";
        src: url("https://excalidraw.com/Cascadia.woff2");
      }
      @font-face {
        font-family: "Assistant";
        src: url("https://excalidraw.com/Assistant-Regular.woff2");
      }
    </style>
    
  </defs>
  <g stroke-linecap="round"><g transform="translate(10.34375 10) rotate(0 163.78515625 110.462890625)"><path d="M0 0 C73.36 23.21, 147.26 47.56, 327.57 106.3 M0 0 C78.46 23.87, 156.97 49.27, 327.57 106.3 M327.57 106.3 C222.34 142.66, 115.09 180.88, 0.3 220.93 M327.57 106.3 C261.72 127.14, 195.26 151.42, 0.3 220.93" stroke="#69db7c" stroke-width="2" fill="none"></path></g></g><mask></mask><g transform="translate(171.6953125 31.24609375) rotate(0 10 12.5)"><text x="0" y="17.52" font-family="Virgil, Segoe UI Emoji" font-size="20px" fill="#69db7c" text-anchor="start" style="white-space: pre;" direction="ltr" dominant-baseline="alphabetic">递</text></g><g transform="translate(174.84765625 186.41015625) rotate(0 10 12.5)"><text x="0" y="17.52" font-family="Virgil, Segoe UI Emoji" font-size="20px" fill="#69db7c" text-anchor="start" style="white-space: pre;" direction="ltr" dominant-baseline="alphabetic">归</text></g><g stroke-linecap="round"><g transform="translate(312.30078125 116.46875) rotate(0 12.638671875 -8.095703125)"><path d="M0 0 C5.65 -0.03, 11.3 -0.06, 25.28 -0.14 M0 0 C8.28 -0.04, 16.56 -0.09, 25.28 -0.14 M25.28 -0.14 C21.47 -3.52, 17.67 -6.91, 7.23 -16.19 M25.28 -0.14 C21.53 -3.47, 17.78 -6.81, 7.23 -16.19" stroke="#b2f2bb" stroke-width="2" fill="none"></path></g></g><mask></mask><g stroke-linecap="round"><g transform="translate(27.58984375 210.8125) rotate(0 -3.697265625 12.21484375)"><path d="M0 0 C-5.95 7.2, -11.89 14.41, -17.59 21.32 M0 0 C-6.62 8.02, -13.24 16.05, -17.59 21.32 M-17.59 21.32 C-8.05 22.39, 1.49 23.45, 10.2 24.43 M-17.59 21.32 C-8.27 22.36, 1.05 23.41, 10.2 24.43" stroke="#b2f2bb" stroke-width="2" fill="none"></path></g></g><mask></mask></svg>